<svg xmlns="http://www.w3.org/2000/svg" width="90.738" height="103.851" id="google-play-games">
  <g>
    <path fill="#207d48" d="m89.625 49.607-10.366-5.918a50.212 50.212 0 0 1 1.335 7.812 54.155 54.155 0 0 1 .222 7.1l8.809-5.139a2.223 2.223 0 0 0 1.112-1.913 2.187 2.187 0 0 0-1.112-1.935ZM63.6 65.779c-1.579-1.468-3-3.092-4.471-4.671a5.986 5.986 0 0 0-4.671-1.98c-7.118.022-14.237.044-21.377 0a6.669 6.669 0 0 0-5.275 2.273c-2.18 2.358-4.4 4.694-6.7 6.918a30.628 30.628 0 0 1-4.071 3.292 5.882 5.882 0 0 1-8.987-2.758C6.629 65.356 6.54 61.641 6.34 57.948c-.022-.489 0-.979 0-1.468.111-9.743 2.38-18.842 8.03-26.916 3.181-4.56 7.474-7.185 13.214-6.94a19.463 19.463 0 0 1 9.7 3.292c3.937 2.536 7.852 2.714 11.79.512L3.337.289a2.21 2.21 0 0 0-2.225.023A2.2 2.2 0 0 0 0 2.225l.445 99.413a2.17 2.17 0 0 0 1.112 1.913 2.21 2.21 0 0 0 2.224 0l70.695-41.243-9.009 5.25a74.587 74.587 0 0 0-1.867-1.779Z"></path>
    <path fill="#069e4e" fill-rule="evenodd" d="M80.616 51.497a50.213 50.213 0 0 0-1.335-7.808c-.378-1.446-.8-2.87-1.312-4.271.712 14.793-14.3 12.7-14.3 12.7H36.082l-6.518 7.83a6.748 6.748 0 0 1 3.515-.845c7.118.067 14.237.044 21.377 0a6.138 6.138 0 0 1 4.671 1.98c1.468 1.579 2.892 3.2 4.471 4.671.623.6 1.268 1.179 1.891 1.78l9.009-5.25 6.362-3.715a58.144 58.144 0 0 0-.245-7.074Z"></path>
    <path fill="none" d="M57.392 38.617a3.37 3.37 0 0 1-3.337 3.226 3.252 3.252 0 0 1-3.248-3.092v-.289a3.3 3.3 0 0 1 3.292-3.248.379.379 0 0 1 .156.022 3.364 3.364 0 0 1 3.137 3.381Zm8.609 7.675a3.209 3.209 0 0 1-3.314 3.181 3.294 3.294 0 0 1-3.27-3.359v-.022a2.93 2.93 0 0 1 .178-.979 3.38 3.38 0 0 1 3.159-2.247 3.333 3.333 0 0 1 3.248 3.426Zm-35.214-1.09c-1.09.022-2.18 0-3.426 0 0 1.98-.044 3.759.022 5.561.022 1.023-.4 1.4-1.379 1.379-4.249-.067-3.6.489-3.648-3.47-.022-1.09 0-2.18 0-3.448-1.846 0-3.581-.067-5.294.022-1.157.044-1.668-.334-1.557-1.513a9.6 9.6 0 0 0 0-1.958c-.111-1.157.334-1.624 1.513-1.579 1.713.067 3.4.022 5.339.022v-4.983c0-1.824.022-1.869 1.824-1.846 3.648.022 3.137-.467 3.181 3.181v3.67c1.869 0 3.648.044 5.406-.022 1.134-.044 1.513.423 1.49 1.513-.09 4.071.533 3.404-3.471 3.471Zm35.236-14.259a2.035 2.035 0 0 1-.022.378 3.366 3.366 0 0 1-.934 2.024 3.244 3.244 0 0 1-2.313.979 3.388 3.388 0 0 1-3.292-2.647 2.425 2.425 0 0 1-.067-.578 3.318 3.318 0 0 1 3.292-3.381 3.355 3.355 0 0 1 3.336 3.225Zm8.008 7.675a3.375 3.375 0 0 1-2.224 3.025 3.172 3.172 0 0 1-1.112.2 3.241 3.241 0 0 1-3.248-3.381 3.384 3.384 0 0 1 2.024-3 3.087 3.087 0 0 1 1.268-.267 3.446 3.446 0 0 1 3.292 3.422Z"></path>
    <path fill="#59bb64" fill-rule="evenodd" d="M77.969 39.441a42.142 42.142 0 0 0-5.05-9.788c-3.2-4.6-7.5-7.3-13.28-7.052a19.363 19.363 0 0 0-9.7 3.27c-.289.2-.6.356-.89.534-3.937 2.2-7.83 2.024-11.79-.534a19.536 19.536 0 0 0-9.7-3.292c-5.717-.245-10.032 2.38-13.214 6.918-5.65 8.075-7.919 17.173-8.03 26.916 0 .489-.022.979 0 1.468.2 3.693.267 7.408 1.713 10.9a5.882 5.882 0 0 0 8.987 2.758 30.628 30.628 0 0 0 4.071-3.292q3.437-3.37 6.7-6.918a7.06 7.06 0 0 1 1.78-1.424l6.518-7.808h27.559c.022.044 15.038 2.158 14.326-12.657Zm-47.182 5.761c-1.09.022-2.18 0-3.426 0 0 1.98-.044 3.759.022 5.561.022 1.023-.4 1.4-1.379 1.379-4.249-.067-3.6.489-3.648-3.47-.022-1.09 0-2.18 0-3.448-1.846 0-3.581-.067-5.294.022-1.157.044-1.668-.334-1.557-1.513a9.6 9.6 0 0 0 0-1.958c-.111-1.157.334-1.624 1.513-1.579 1.713.067 3.4.022 5.339.022v-4.984c0-1.824.022-1.869 1.824-1.846 3.648.022 3.137-.467 3.181 3.181v3.67c1.869 0 3.648.044 5.406-.022 1.134-.044 1.513.423 1.49 1.513-.09 4.073.533 3.404-3.471 3.472Zm31.9-17.44a3.305 3.305 0 0 1 3.337 3.2 2.035 2.035 0 0 1-.022.378 3.366 3.366 0 0 1-.934 2.024 3.244 3.244 0 0 1-2.313.979 3.388 3.388 0 0 1-3.292-2.647 2.424 2.424 0 0 1-.067-.578 3.328 3.328 0 0 1 3.29-3.356Zm-3.27 18.352v-.022a2.93 2.93 0 0 1 .178-.979 3.38 3.38 0 0 1 3.159-2.247 3.277 3.277 0 0 1 2.4 1.112 3.351 3.351 0 0 1 .823 2.313 3.209 3.209 0 0 1-3.314 3.181 3.29 3.29 0 0 1-3.247-3.358ZM54.1 35.192a.379.379 0 0 1 .156.022 3.416 3.416 0 0 1 3.137 3.4 3.37 3.37 0 0 1-3.337 3.226 3.252 3.252 0 0 1-3.248-3.092v-.289a3.338 3.338 0 0 1 3.292-3.27Zm17.707 6.451a3.172 3.172 0 0 1-1.112.2 3.241 3.241 0 0 1-3.248-3.381 3.384 3.384 0 0 1 2.024-3 3.088 3.088 0 0 1 1.268-.267 3.431 3.431 0 0 1 3.292 3.426 3.375 3.375 0 0 1-2.224 3.022Z"></path>
    <path fill="#fff" d="M60.908 33.79a3.338 3.338 0 0 0 1.846.556 3.244 3.244 0 0 0 2.313-.979 3.366 3.366 0 0 0 .934-2.024 2.287 2.287 0 0 0 .022-.378 3.291 3.291 0 0 0-3.337-3.2 3.347 3.347 0 0 0-3.292 3.381 2.565 2.565 0 0 0 .067.578 3.284 3.284 0 0 0 1.446 2.069Zm-6.851 8.053a3.354 3.354 0 0 0 3.337-3.226 3.417 3.417 0 0 0-3.137-3.4h-.156a3.29 3.29 0 0 0-3.293 3.245v.289a3.252 3.252 0 0 0 3.248 3.092Zm13.391-3.381a3.241 3.241 0 0 0 3.248 3.381 3.172 3.172 0 0 0 1.112-.2 3.375 3.375 0 0 0 2.224-3.025 3.446 3.446 0 0 0-3.292-3.426 3.388 3.388 0 0 0-1.268.245 3.353 3.353 0 0 0-2.024 3.025Zm-4.76 11.011a3.436 3.436 0 0 0 1.846-.512 3.224 3.224 0 0 0 1.468-2.669 3.39 3.39 0 0 0-.823-2.313 3.2 3.2 0 0 0-2.4-1.112 3.411 3.411 0 0 0-3.159 2.247 2.93 2.93 0 0 0-.178.979v.022a3.262 3.262 0 0 0 3.245 3.358Z"></path>
    <g>
      <path fill="none" d="M13.038 30.895h24.131v24.131H13.038z" opacity=".44"></path>
      <path fill="#fff" fill-rule="evenodd" d="M32.767 40.175c-1.78.067-3.559.022-5.406.022v-3.67c-.022-3.626.467-3.137-3.181-3.181-1.8-.022-1.824.022-1.824 1.846v4.983c-1.913 0-3.626.067-5.339-.022-1.2-.044-1.646.423-1.513 1.579a9.6 9.6 0 0 1 0 1.958c-.133 1.2.4 1.579 1.557 1.513 1.735-.067 3.47-.022 5.317-.022 0 1.268-.022 2.358 0 3.448.044 3.96-.6 3.4 3.648 3.47.979.022 1.4-.356 1.357-1.379-.044-1.78-.022-3.581-.022-5.561 1.246 0 2.336.022 3.426 0 4-.067 3.381.6 3.47-3.515.023-1.046-.355-1.513-1.49-1.469Z"></path>
    </g>
  </g>
</svg>
